<svg fill="#084999" version="1.2" xmlns="http://www.w3.org/2000/svg" viewBox="0 0 1548 1207" width="1548" height="1207"><path class="a" d="m490.6 1204.4c-56.2 0-101.5-45.4-101.5-101.6 0-56.1 45.3-101.5 101.5-101.5 56.2 0 101.6 45.4 101.6 101.5 0 56.2-45.4 101.6-101.6 101.6zm838.3 2.5c-56.9 0-102.6-46.1-102.6-103 0-56.9 45.7-102.6 102.6-102.6 56.9 0 102.6 45.7 102.6 102.6 0 56.9-45.7 103-102.6 103zm218.9-802.3c-18 324.1-265.7 596.7-593.8 628-18 0-40.3 2.2-60.4 2.2-332.8 0-620.5-259.3-649.7-603.2-15.4-158.8-100.4-250.3-243.4-261.5v-169.9c230.1 11.1 388.6 169.9 410.9 415.5 24.5 270.5 261.1 471.4 526.8 446.9 241.3-22.3 426.4-221.1 442.2-458zm-618.6 386.7c-67 8.7-134-2.5-196.3-29.1-6.8-4.3-11.2-9-13.3-15.5-2.5-6.9-2.5-13.7 2.1-18l162.8-288.1c6.8-11.2 20.2-15.9 31.3-9 4.7 2.1 6.9 6.5 9 9l158.5 279.1c6.8 11.1 2.1 24.5-9 31.3h-2.2c-44.6 22.3-91.4 37.8-142.9 40.3zm276.9-147.6c-9 13.3-20.2 24.5-31.4 35.6q-10 6.9-19.8 6.9c-6.8-2.2-13.6-6.9-15.8-11.2l-134-234.4c-4.3-6.9-4.3-15.9 0-22.3 4.7-9 11.2-11.2 18-11.2h249.9q11.2 0 18.1 6.5c2.1 6.8 6.4 11.1 4.3 18-6.5 78.1-37.8 152-89.3 212.1zm-720.9-212.1c0-6.9 2.1-13.3 6.4-18 4.7-6.5 11.2-9 15.9-9h274.4c9 0 15.8 4.7 20.1 11.1 4.4 6.9 4.4 15.9 0 24.9l-142.9 247.7c-4.3 11.2-20.2 13.4-31.3 9.1 0-2.2-2.2-2.2-2.2-2.2-76-64.8-127.1-156.3-140.4-252.5q0-4.6 0-11.1z"></path></svg>